<svg width="302" height="93.6" viewBox="0 0 302 93.6" class="css-1j8o68f"><defs id="SvgjsDefs1094"></defs><g id="SvgjsG1095" featurekey="symbolFeature-0" transform="matrix(1.2991288834069359,0,0,1.2991288834069359,-49.174112639450236,-18.156563109148376)" fill="#111111"><g xmlns="http://www.w3.org/2000/svg" transform="translate(0,-952.3622)"><path style="color:;font-style:normal;font-variant:normal;font-weight:normal;font-stretch:normal;font-size:medium;line-height:normal;font-family:sans-serif;text-indent:0;text-align:start;text-decoration:none;text-decoration-line:none;text-decoration-style:solid;text-decoration-color:;letter-spacing:normal;word-spacing:normal;text-transform:none;direction:ltr;block-progression:tb;writing-mode:lr-tb;baseline-shift:baseline;text-anchor:start;white-space:normal;clip-rule:nonzero;display:inline;overflow:visible;visibility:visible;opacity:1;isolation:auto;mix-blend-mode:normal;color-interpolation:sRGB;color-interpolation-filters:linearRGB;solid-color:;solid-opacity:1;fill:#111111;fill-opacity:1;fill-rule:nonzero;stroke:none;stroke-width:1.50000048;stroke-linecap:round;stroke-linejoin:round;stroke-miterlimit:4;stroke-dasharray:none;stroke-dashoffset:0;stroke-opacity:1;color-rendering:auto;image-rendering:auto;shape-rendering:auto;text-rendering:auto;enable-background:accumulate" d="m 49.984515,966.33852 c -0.188779,0.005 -0.368726,0.081 -0.503906,0.21289 l -9.177735,8.95703 c -0.720944,0.69916 0.332631,1.77826 1.048829,1.07426 l 7.68164,-7.49809 0,12.89649 c -0.705639,0.051 -1.41445,0.1555 -2.11914,0.3203 -5.809226,1.3606 -9.697715,6.3643 -8.976563,11.7617 0.700759,5.2446 5.502546,9.1538 11.277344,9.5176 0.105459,0.01 0.204964,0.047 0.310547,0.043 4.38418,-0.1767 8.417689,2.0406 10.193359,5.5 1.775676,3.4594 1.012102,7.4746 -1.984375,10.2461 -2.996462,2.7715 -7.663067,3.6737 -11.724609,2.2324 -4.061548,-1.4413 -6.658216,-4.8763 -6.658203,-8.6524 0.01437,-1.0142 -1.514367,-1.0142 -1.5,0 -1.6e-5,4.4638 3.071871,8.4396 7.65625,10.0665 1.147974,0.4073 2.335634,0.6503 3.52539,0.7363 l 0,13.873 c -0.01437,1.0143 1.514367,1.0143 1.5,0 l 0,-13.8535 c 3.047853,-0.1164 6.00319,-1.2498 8.220703,-3.3008 3.442122,-3.1837 4.374286,-7.9898 2.298828,-12.0332 -2.019424,-3.9343 -6.421024,-6.3578 -11.191406,-6.3144 -0.03737,3e-4 -0.07397,-0.011 -0.111328,-0.012 -5.350064,-0.112 -9.714745,-3.672 -10.326172,-8.2481 -0.611422,-4.576 2.665546,-8.8916 7.832032,-10.1016 5.166479,-1.2101 10.533315,1.1493 12.572265,5.4141 0.432291,0.9024 1.785807,0.2539 1.353516,-0.6484 -1.787376,-3.7387 -5.650786,-6.1374 -9.921875,-6.5293 -0.240312,-0.022 -0.483935,-0.03 -0.726563,-0.039 l 0,-13.30663 8.125,7.92973 c 0.716346,0.7204 1.785569,-0.37672 1.046875,-1.07426 l -9.177734,-8.95703 c -0.144861,-0.1413 -0.340672,-0.21808 -0.542969,-0.21289 z"></path></g></g><g id="SvgjsG1096" featurekey="nameFeature-0" transform="matrix(1.261229554094077,0,0,1.261229554094077,46.482375093510655,22.32546354266018)" fill="#111111"><path d="M21.875 22.891 l13.828 0 l0 -5.7813 l-13.828 0 l0 5.7813 z M35.703 27.422 l-5.7813 0.000076294 l0 5.3125 l-5.7031 0 c-1.9791 0 -3.75 -0.3125 -5.3125 -0.9375 c-1.5625 -0.57289 -2.9427 -1.4323 -4.1406 -2.5781 c-1.0938 -1.1979 -1.9531 -2.552 -2.5781 -4.0624 c-0.625 -1.4584 -0.9375 -3.1511 -0.9375 -5.0782 c0 -1.8229 0.3125 -3.5156 0.9375 -5.0781 c0.67711 -1.6666 1.5365 -3.0208 2.5781 -4.0624 c1.1459 -1.1459 2.5261 -2.0573 4.1407 -2.7345 c1.5625 -0.625 3.3334 -0.9375 5.3125 -0.9375 l11.406 0.078125 l0 -5.9375 l-11.406 -0.078125 c-2.9166 0 -5.5989 0.46875 -8.0469 1.4063 c-2.3959 0.9375 -4.4792 2.2396 -6.2501 3.9063 c-1.7188 1.6666 -3.099 3.6458 -4.1406 5.9374 c-0.9375 2.2396 -1.4063 4.6875 -1.4063 7.3438 s0.46875 5.1302 1.4063 7.4219 c1.0416 2.3959 2.4219 4.375 4.1406 5.9375 c1.5625 1.5625 3.6459 2.8906 6.25 3.9844 c2.5 0.9375 5.1823 1.4063 8.0469 1.4063 l11.484 0 l0 -11.25 z M76.781 38.5937 l-10.078 -14.063 c1.3541 -0.41664 2.552 -0.91141 3.5937 -1.4843 c1.1459 -0.72914 2.0834 -1.5364 2.8125 -2.4218 c0.83336 -0.98961 1.4323 -2.0573 1.797 -3.2032 c0.46875 -1.25 0.70313 -2.6563 0.70313 -4.2188 c0 -1.8229 -0.3125 -3.4635 -0.9375 -4.9219 c-0.625 -1.4063 -1.5365 -2.6302 -2.7344 -3.6719 c-1.1459 -0.98961 -2.6042 -1.7709 -4.3751 -2.3438 c-1.8229 -0.57289 -3.75 -0.85938 -5.7813 -0.85938 l-16.563 0 l0 5.9375 l16.016 0 c2.4479 0 4.3489 0.52086 5.703 1.5625 s2.0313 2.6041 2.0313 4.6875 c0 1.9271 -0.67711 3.4375 -2.0313 4.5313 c-1.3541 1.1459 -3.2291 1.7188 -5.625 1.7188 l-16.094 0 l0 18.75 l6.4844 0 l0 -12.969 l8.2031 0 l9.1406 12.969 l7.7344 0 l0 0 z M112.703 38.5937 l7.0313 0 l-13.594 -37.266 l-7.1094 0 l7.8906 22.266 z M83.9531 38.5937 l6.875 0 l8.125 -19.844 l-3.3594 -8.9063 z M146.281 7.5 l11.797 0 l0 -6.0938 l-30.156 0 l0 6.0938 l18.359 0 z M139.719 13.594000000000001 l6.5625 0 l0 25 l-6.5625 0 l0 -25 z M181.344 32.6562 c-0.78125 -0.15625 -1.5105 -0.3907 -2.1876 -0.7032 c-1.4584 -0.67711 -2.7344 -1.6146 -3.8281 -2.8125 c-1.0416 -1.0938 -1.875 -2.4479 -2.5 -4.0625 c-0.57289 -1.6146 -0.85938 -3.2552 -0.85938 -4.9219 l0 -0.15625 l0 -0.23438 c0 -1.7188 0.28648 -3.3854 0.85938 -5 c0.67711 -1.6666 1.5105 -2.9948 2.5001 -3.9844 c1.0416 -1.1979 2.2916 -2.1094 3.75 -2.7344 c0.88539 -0.41664 1.6406 -0.67703 2.2656 -0.78117 l0 -5.8594 c-1.8229 0.26039 -3.4375 0.70313 -4.8438 1.3281 c-2.2916 0.98961 -4.2448 2.3177 -5.8594 3.9844 s-2.8906 3.6458 -3.8281 5.9374 s-1.4063 4.6875 -1.4063 7.1875 l0 0.15625 l0 0.23438 c0 2.5521 0.46875 4.948 1.4063 7.1876 c0.83336 2.2396 2.0834 4.1927 3.75 5.8594 c1.6666 1.7188 3.6198 3.0469 5.8594 3.9844 c1.4063 0.625 3.0469 1.0677 4.9219 1.3281 l0 -5.9375 z M202.594 20 l0.000076294 -0.23438 c0 -2.5521 -0.46875 -4.948 -1.4063 -7.1876 c-0.9375 -2.2916 -2.2135 -4.2708 -3.8281 -5.9374 c-1.5625 -1.6666 -3.4896 -2.9688 -5.7813 -3.9063 c-1.3021 -0.625 -2.8906 -1.0677 -4.7656 -1.3281 l0 5.9375 l0.9375 0.3125 c0.46875 0.15625 0.83336 0.28648 1.0938 0.39063 c1.4584 0.67711 2.7344 1.6146 3.8281 2.8125 c1.0416 1.0938 1.875 2.4479 2.5 4.0625 c0.57289 1.6146 0.85938 3.2552 0.85938 4.9219 l0 0.15625 l0 0.23438 c0 1.7188 -0.28648 3.3854 -0.85938 5 c-0.67711 1.6666 -1.5105 2.9948 -2.5001 3.9844 c-1.0416 1.1979 -2.2916 2.1094 -3.75 2.7344 c-0.67711 0.3125 -1.3802 0.54688 -2.1094 0.70313 l0 5.9375 c1.5625 -0.20836 3.125 -0.65109 4.6875 -1.3282 c2.1354 -0.88539 4.0885 -2.2135 5.8594 -3.9844 c1.7188 -1.8229 2.9948 -3.802 3.8281 -5.9374 c0.9375 -2.2916 1.4063 -4.6875 1.4063 -7.1875 l0 -0.15625 z"></path></g></svg>