<?xml version="1.0" encoding="UTF-8" standalone="no"?>
<svg
   xmlns:dc="http://purl.org/dc/elements/1.1/"
   xmlns:cc="http://creativecommons.org/ns#"
   xmlns:rdf="http://www.w3.org/1999/02/22-rdf-syntax-ns#"
   xmlns:svg="http://www.w3.org/2000/svg"
   xmlns="http://www.w3.org/2000/svg"
   xmlns:sodipodi="http://sodipodi.sourceforge.net/DTD/sodipodi-0.dtd"
   xmlns:inkscape="http://www.inkscape.org/namespaces/inkscape"
   width="369.6822429906542"
   height="71.38114485882018"
   viewBox="0 0 369.6822429906542 71.38114485882018"
   class="css-1j8o68f"
   version="1.1"
   id="svg36"
   sodipodi:docname="GRATO.svg"
   inkscape:version="0.92.3 (2405546, 2018-03-11)">
  <metadata
     id="metadata40">
    <rdf:RDF>
      <cc:Work
         rdf:about="">
        <dc:format>image/svg+xml</dc:format>
        <dc:type
           rdf:resource="http://purl.org/dc/dcmitype/StillImage" />
      </cc:Work>
    </rdf:RDF>
  </metadata>
  <sodipodi:namedview
     pagecolor="#ffffff"
     bordercolor="#666666"
     borderopacity="1"
     objecttolerance="10"
     gridtolerance="10"
     guidetolerance="10"
     inkscape:pageopacity="0"
     inkscape:pageshadow="2"
     inkscape:window-width="3840"
     inkscape:window-height="2004"
     id="namedview38"
     showgrid="false"
     inkscape:zoom="3.576044"
     inkscape:cx="228.03514"
     inkscape:cy="25.964166"
     inkscape:window-x="-16"
     inkscape:window-y="-16"
     inkscape:window-maximized="1"
     inkscape:current-layer="svg36" />
  <defs
     id="SvgjsDefs5011" />
  <g
     id="g4637"
     style="fill:#163967;fill-opacity:1">
    <g
       id="g4616"
       style="fill:#163967;fill-opacity:1">
      <g
         id="SvgjsG5012"
         featurekey="symbolFeature-0"
         transform="matrix(0.9129487744639768,0,0,0.9129487744639768,-1.4881064980230032,-12.72467976773004)"
         fill="#111111"
         style="fill:#163967;fill-opacity:1">
        <polygon
           points="42.021,89.823 98.369,53.589 82.566,61.219 82.574,61.292 82.527,61.238 82.264,61.365 82.281,61.389 "
           id="polygon3"
           style="fill:#163967;fill-opacity:1" />
        <polygon
           points="79.395,61.174 38.895,57.391 36.811,91.25 "
           id="polygon5"
           style="fill:#163967;fill-opacity:1" />
        <polygon
           points="3.71,38.712 34.918,92.062 37.066,57.146 "
           id="polygon7"
           style="fill:#163967;fill-opacity:1" />
        <polygon
           points="95.209,45.172 80.775,27.29 79.232,32.516 95.928,46.175 "
           id="polygon9"
           style="fill:#163967;fill-opacity:1" />
        <polygon
           points="98.135,50.979 79.758,35.645 82.281,58.632 "
           id="polygon11"
           style="fill:#163967;fill-opacity:1" />
        <polygon
           points="61.512,33.498 79.758,54.504 77.424,33.356 "
           id="polygon13"
           style="fill:#163967;fill-opacity:1" />
        <polygon
           points="59.756,34.836 39.467,54.979 80.432,58.808 "
           id="polygon15"
           style="fill:#163967;fill-opacity:1" />
        <polygon
           points="58.445,33.191 36.674,27.365 38.974,52.971 "
           id="polygon17"
           style="fill:#163967;fill-opacity:1" />
        <polygon
           points="37.133,54.393 34.822,28.537 6.776,37.639 "
           id="polygon19"
           style="fill:#163967;fill-opacity:1" />
        <polygon
           points="8.923,35.031 34.527,26.292 25.659,19.867 "
           id="polygon21"
           style="fill:#163967;fill-opacity:1" />
        <polygon
           points="1.63,26.184 3.25,37.485 20.957,21.022 "
           id="polygon23"
           style="fill:#163967;fill-opacity:1" />
        <polygon
           points="28.355,14.604 7.837,21.987 26.101,17.109 "
           id="polygon25"
           style="fill:#163967;fill-opacity:1" />
        <polygon
           points="36.751,24.86 60.131,31.196 77.148,30.907 78.672,25.749 67.951,19.853 48.173,14.486 32.256,13.938 28.073,18.586   "
           id="polygon27"
           style="fill:#163967;fill-opacity:1" />
      </g>
      <g
         id="SvgjsG5013"
         featurekey="nameFeature-0"
         transform="matrix(1.639612988616859,0,0,1.639612988616859,104.06492749821126,-14.21560653288375)"
         fill="#111111"
         style="fill:#163967;fill-opacity:1">
        <path
           d="M29.96 14 l-2.8 3.28 q-1.64 -1.68 -3.92 -2.64 t-4.8 -0.96 q-3.28 0 -5.98 1.48 t-4.22 4.04 q-1.56 2.68 -1.56 5.96 q0 3.12 1.68 5.76 q1.6 2.48 4.3 3.94 t5.82 1.46 q2.2 0 4.22 -0.76 t3.62 -2.12 l0 -5.44 l-3.84 0 l-1.88 -4.32 l10.04 0 l0 11.6 q-2.28 2.56 -5.46 3.98 t-6.74 1.42 q-4.44 0 -8.16 -2.16 q-3.64 -2.08 -5.72 -5.72 q-2.16 -3.72 -2.16 -8.16 q0 -4.28 2.28 -7.88 q2.16 -3.44 5.86 -5.46 t7.94 -2.02 q3.32 0 6.32 1.28 q2.92 1.2 5.16 3.44 z M42.4 14.52 l0 9.92 q1.24 -0.72 2.76 -0.96 q1.12 -0.2 2.88 -0.2 l5.68 0 q2.36 0 3.68 -1.08 q1.4 -1.16 1.4 -3.48 q0 -2.2 -1.48 -3.28 q-1.28 -0.92 -3.6 -0.92 l-11.32 0 z M55.16 35.28 l-3.64 -7.64 l-3.48 0 q-1.64 0 -2.88 0.2 q-1.52 0.28 -2.76 0.96 l0 11.2 l-4.36 0 l0 -29.84 l15.68 0 q2.76 0 4.88 1.04 t3.28 2.96 q1.24 2.04 1.24 4.8 q0 3.36 -1.8 5.52 t-5.08 3 l2.32 4.76 q1 1.48 1.56 2.08 q0.68 0.76 1.3 1.02 t1.62 0.26 l0.44 0 l0.96 -0.04 l0 4.44 q-2.32 0 -3.44 -0.16 q-1.88 -0.32 -3.2 -1.24 q-1.56 -1.12 -2.64 -3.32 z M80.96000000000001 13.32 l-1.64 -3.68 l4.8 0 l14.36 30.36 l-4.88 0 l-1.96 -4.36 l-9.08 0 q-2.56 0 -4.6 0.48 q-1.8 0.44 -3 1.16 q-1.08 0.64 -1.44 1.32 l-0.76 1.4 l-4.72 0 z M84.16000000000001 31.240000000000002 l5.52 0 l-6.52 -12.6 l-6.6 14.28 q0.88 -0.76 2.68 -1.2 q2.04 -0.48 4.92 -0.48 z M126.28 14.559999999999999 l-10.52 0 l0 25.44 l-4.24 0 l0 -25.44 l-10.64 0 l0 -4.4 l25.4 0 l0 4.4 z M157.68 24.880000000000003 q0 -3.2 -1.64 -5.8 q-1.56 -2.52 -4.26 -3.96 t-5.86 -1.44 q-3.28 0 -5.98 1.48 t-4.22 4.04 q-1.56 2.68 -1.56 5.96 q0 3.12 1.68 5.76 q1.6 2.48 4.3 3.94 t5.84 1.46 t5.84 -1.52 t4.26 -4.08 q1.6 -2.68 1.6 -5.84 z M162 25.119999999999997 q0 4.32 -2.24 7.96 q-2.16 3.48 -5.86 5.54 t-7.98 2.06 q-4.44 0 -8.16 -2.16 q-3.64 -2.08 -5.72 -5.72 q-2.16 -3.72 -2.16 -8.16 q0 -4.28 2.28 -7.88 q2.16 -3.44 5.86 -5.46 t7.94 -2.02 q4.36 0 8.08 2.12 q3.64 2.08 5.76 5.64 q2.2 3.72 2.2 8.08 z"
           id="path30"
           style="fill:#163967;fill-opacity:1" />
      </g>
      <g
         id="SvgjsG5014"
         featurekey="nameFeature-1"
         transform="matrix(0.2833530810988547,0,0,0.2833530810988547,107.65997635672669,59.370484023519175)"
         fill="#111111"
         style="fill:#163967;fill-opacity:1">
        <path
           d="M26.6 14.559999999999999 l-10.52 0 l0 25.44 l-4.24 0 l0 -25.44 l-10.64 0 l0 -4.4 l25.4 0 l0 4.4 z M36.56 28.04 l0 7.6 l18.4 0 l0 4.36 l-22.76 0 l0 -29.84 l21 0 l0 4.4 l-16.64 0 l0 9.04 q1.24 -0.72 2.76 -0.96 q1.12 -0.2 2.88 -0.2 l6.52 0 l0 4.44 l-6.52 0 q-1.64 0 -2.88 0.2 q-1.52 0.28 -2.76 0.96 z M87.52000000000001 14 l-2.8 3.28 q-1.64 -1.68 -3.92 -2.64 t-4.8 -0.96 q-3.28 0 -5.98 1.48 t-4.22 4.04 q-1.56 2.68 -1.56 5.96 q0 3.12 1.68 5.76 q1.6 2.48 4.3 3.94 t5.82 1.46 q2.88 0 5.36 -1.24 t4.12 -3.44 l2.68 3.64 q-2.28 2.56 -5.46 3.98 t-6.74 1.42 q-4.44 0 -8.16 -2.16 q-3.64 -2.08 -5.72 -5.72 q-2.16 -3.72 -2.16 -8.16 q0 -4.28 2.28 -7.88 q2.16 -3.44 5.86 -5.46 t7.94 -2.02 q3.32 0 6.32 1.28 q2.92 1.2 5.16 3.44 z M98.92 26.8 l0 13.2 l-4.32 0 l0 -29.84 l4.32 0 l0 12.24 q1.6 -0.8 3.8 -0.8 q0.8 0 3.88 0.36 q4.32 0.52 5.84 0.52 q2.32 0 4.04 -0.76 l0 -11.56 l4.36 0 l0 29.84 l-4.36 0 l0 -13.88 q-1.72 0.76 -4.04 0.76 q-1.52 0 -5.84 -0.52 q-3.08 -0.36 -3.88 -0.36 q-2.2 0 -3.8 0.8 z M130.52 14.36 l-3.48 -4.2 l5.64 0 l19.16 22.8 l0 -22.8 l4.4 0 l0 29.84 l-4.32 0 l-17.12 -20.52 l0 20.52 l-4.28 0 l0 -25.64 z M190.84 24.880000000000003 q0 -3.2 -1.64 -5.8 q-1.56 -2.52 -4.26 -3.96 t-5.86 -1.44 q-3.28 0 -5.98 1.48 t-4.22 4.04 q-1.56 2.68 -1.56 5.96 q0 3.12 1.68 5.76 q1.6 2.48 4.3 3.94 t5.84 1.46 t5.84 -1.52 t4.26 -4.08 q1.6 -2.68 1.6 -5.84 z M195.16000000000003 25.119999999999997 q0 4.32 -2.24 7.96 q-2.16 3.48 -5.86 5.54 t-7.98 2.06 q-4.44 0 -8.16 -2.16 q-3.64 -2.08 -5.72 -5.72 q-2.16 -3.72 -2.16 -8.16 q0 -4.28 2.28 -7.88 q2.16 -3.44 5.86 -5.46 t7.94 -2.02 q4.36 0 8.08 2.12 q3.64 2.08 5.76 5.64 q2.2 3.72 2.2 8.08 z M222.88 40 l-20.92 0 l0 -29.84 l4.36 0 l0 25.48 l16.56 0 l0 4.36 z M253.88 24.880000000000003 q0 -3.2 -1.64 -5.8 q-1.56 -2.52 -4.26 -3.96 t-5.86 -1.44 q-3.28 0 -5.98 1.48 t-4.22 4.04 q-1.56 2.68 -1.56 5.96 q0 3.12 1.68 5.76 q1.6 2.48 4.3 3.94 t5.84 1.46 t5.84 -1.52 t4.26 -4.08 q1.6 -2.68 1.6 -5.84 z M258.2 25.119999999999997 q0 4.32 -2.24 7.96 q-2.16 3.48 -5.86 5.54 t-7.98 2.06 q-4.44 0 -8.16 -2.16 q-3.64 -2.08 -5.72 -5.72 q-2.16 -3.72 -2.16 -8.16 q0 -4.28 2.28 -7.88 q2.16 -3.44 5.86 -5.46 t7.94 -2.02 q4.36 0 8.08 2.12 q3.64 2.08 5.76 5.64 q2.2 3.72 2.2 8.08 z M290.56 14 l-2.8 3.28 q-1.64 -1.68 -3.92 -2.64 t-4.8 -0.96 q-3.28 0 -5.98 1.48 t-4.22 4.04 q-1.56 2.68 -1.56 5.96 q0 3.12 1.68 5.76 q1.6 2.48 4.3 3.94 t5.82 1.46 q2.2 0 4.22 -0.76 t3.62 -2.12 l0 -5.44 l-3.84 0 l-1.88 -4.32 l10.04 0 l0 11.6 q-2.28 2.56 -5.46 3.98 t-6.74 1.42 q-4.44 0 -8.16 -2.16 q-3.64 -2.08 -5.72 -5.72 q-2.16 -3.72 -2.16 -8.16 q0 -4.28 2.28 -7.88 q2.16 -3.44 5.86 -5.46 t7.94 -2.02 q3.32 0 6.32 1.28 q2.92 1.2 5.16 3.44 z M302.92 40 l-4.28 0 l0 -29.84 l4.28 0 l0 29.84 z M316.08 28.04 l0 7.6 l18.4 0 l0 4.36 l-22.76 0 l0 -29.84 l21 0 l0 4.4 l-16.64 0 l0 9.04 q1.24 -0.72 2.76 -0.96 q1.12 -0.2 2.88 -0.2 l6.52 0 l0 4.44 l-6.52 0 q-1.64 0 -2.88 0.2 q-1.52 0.28 -2.76 0.96 z M364.68 30.92 q0 2.92 -1.76 5.2 q-1.72 2.16 -4.74 3.36 t-6.82 1.2 q-3.48 0 -6.76 -1.62 t-5.52 -4.5 l3.12 -2.92 q3.88 4.68 9.16 4.68 q2.32 0 4.24 -0.56 q2.12 -0.64 3.28 -1.8 q1.32 -1.28 1.32 -3.04 q0 -2.12 -1.32 -3.2 q-1.12 -0.92 -3.32 -1.2 q-1.28 -0.16 -4.2 -0.16 q-5.36 0 -8.18 -1.96 t-2.82 -5.76 q0 -2.4 1.42 -4.56 t3.9 -3.44 q2.56 -1.36 5.68 -1.36 q3.52 0 6.36 1.08 q3.04 1.16 5.64 3.64 l-2.72 3.2 q-2.44 -1.96 -4.44 -2.74 t-4.84 -0.78 q-1.64 0 -3.06 0.68 t-2.26 1.82 t-0.84 2.42 q0 3.44 6.36 3.44 q5.08 0 8.04 1.04 q2.8 1 4 3.04 q1.08 1.8 1.08 4.8 z M391.24 13.32 l-1.64 -3.68 l4.8 0 l14.36 30.36 l-4.88 0 l-1.96 -4.36 l-9.08 0 q-2.56 0 -4.6 0.48 q-1.8 0.44 -3 1.16 q-1.08 0.64 -1.44 1.32 l-0.76 1.4 l-4.72 0 z M394.44 31.240000000000002 l5.52 0 l-6.52 -12.6 l-6.6 14.28 q0.88 -0.76 2.68 -1.2 q2.04 -0.48 4.92 -0.48 z M415.23999999999995 14.36 l-3.48 -4.2 l5.64 0 l19.16 22.8 l0 -22.8 l4.4 0 l0 29.84 l-4.32 0 l-17.12 -20.52 l0 20.52 l-4.28 0 l0 -25.64 z M455.71999999999997 14.559999999999999 l0 21.08 l6.76 0 q2.8 0 5.04 -1.44 q2.12 -1.4 3.32 -3.76 t1.2 -5.16 q0 -2.92 -1.14 -5.36 t-3.26 -3.88 q-2.28 -1.48 -5.24 -1.48 l-6.68 0 z M449.08 14.559999999999999 l-1.92 -4.4 l15.2 0 q3.96 0 7.24 2.04 q3.16 1.96 5 5.36 t1.84 7.4 q0 3 -1.18 5.94 t-3.26 5.14 q-2 2.16 -4.28 3.08 q-2.2 0.88 -5.24 0.88 l-11.04 0 l0 -25.44 l-2.36 0 z M498.35999999999996 40 l-4.28 0 l0 -29.84 l4.28 0 l0 29.84 z M508.0399999999999 14.36 l-3.48 -4.2 l5.64 0 l19.16 22.8 l0 -22.8 l4.4 0 l0 29.84 l-4.32 0 l-17.12 -20.52 l0 20.52 l-4.28 0 l0 -25.64 z M569.36 10.16 l-12.52 29.84 l-5.16 0 l-12.32 -29.84 l4.72 0 l10.2 24.96 l10.28 -24.96 l4.8 0 z M579.3199999999999 28.04 l0 7.6 l18.4 0 l0 4.36 l-22.76 0 l0 -29.84 l21 0 l0 4.4 l-16.64 0 l0 9.04 q1.24 -0.72 2.76 -0.96 q1.12 -0.2 2.88 -0.2 l6.52 0 l0 4.44 l-6.52 0 q-1.64 0 -2.88 0.2 q-1.52 0.28 -2.76 0.96 z M627.92 30.92 q0 2.92 -1.76 5.2 q-1.72 2.16 -4.74 3.36 t-6.82 1.2 q-3.48 0 -6.76 -1.62 t-5.52 -4.5 l3.12 -2.92 q3.88 4.68 9.16 4.68 q2.32 0 4.24 -0.56 q2.12 -0.64 3.28 -1.8 q1.32 -1.28 1.32 -3.04 q0 -2.12 -1.32 -3.2 q-1.12 -0.92 -3.32 -1.2 q-1.28 -0.16 -4.2 -0.16 q-5.36 0 -8.18 -1.96 t-2.82 -5.76 q0 -2.4 1.42 -4.56 t3.9 -3.44 q2.56 -1.36 5.68 -1.36 q3.52 0 6.36 1.08 q3.04 1.16 5.64 3.64 l-2.72 3.2 q-2.44 -1.96 -4.44 -2.74 t-4.84 -0.78 q-1.64 0 -3.06 0.68 t-2.26 1.82 t-0.84 2.42 q0 3.44 6.36 3.44 q5.08 0 8.04 1.04 q2.8 1 4 3.04 q1.08 1.8 1.08 4.8 z M656.52 14.559999999999999 l-10.52 0 l0 25.44 l-4.24 0 l0 -25.44 l-10.64 0 l0 -4.4 l25.4 0 l0 4.4 z M687.5999999999999 19.48 l-10.2 12.2 l-10.12 -12.2 l0 20.52 l-4.28 0 l0 -25.64 l-3.48 -4.2 l5.64 0 l12.2 14.64 l12.36 -14.64 l5.64 0 l-3.48 4.2 l0 25.64 l-4.28 0 l0 -20.52 z M705.9199999999998 28.04 l0 7.6 l18.4 0 l0 4.36 l-22.76 0 l0 -29.84 l21 0 l0 4.4 l-16.64 0 l0 9.04 q1.24 -0.72 2.76 -0.96 q1.12 -0.2 2.88 -0.2 l6.52 0 l0 4.44 l-6.52 0 q-1.64 0 -2.88 0.2 q-1.52 0.28 -2.76 0.96 z M732.1999999999998 14.36 l-3.48 -4.2 l5.64 0 l19.16 22.8 l0 -22.8 l4.4 0 l0 29.84 l-4.32 0 l-17.12 -20.52 l0 20.52 l-4.28 0 l0 -25.64 z M788.9199999999998 14.559999999999999 l-10.52 0 l0 25.44 l-4.24 0 l0 -25.44 l-10.64 0 l0 -4.4 l25.4 0 l0 4.4 z M817.7199999999998 30.92 q0 2.92 -1.76 5.2 q-1.72 2.16 -4.74 3.36 t-6.82 1.2 q-3.48 0 -6.76 -1.62 t-5.52 -4.5 l3.12 -2.92 q3.88 4.68 9.16 4.68 q2.32 0 4.24 -0.56 q2.12 -0.64 3.28 -1.8 q1.32 -1.28 1.32 -3.04 q0 -2.12 -1.32 -3.2 q-1.12 -0.92 -3.32 -1.2 q-1.28 -0.16 -4.2 -0.16 q-5.36 0 -8.18 -1.96 t-2.82 -5.76 q0 -2.4 1.42 -4.56 t3.9 -3.44 q2.56 -1.36 5.68 -1.36 q3.52 0 6.36 1.08 q3.04 1.16 5.64 3.64 l-2.72 3.2 q-2.44 -1.96 -4.44 -2.74 t-4.84 -0.78 q-1.64 0 -3.06 0.68 t-2.26 1.82 t-0.84 2.42 q0 3.44 6.36 3.44 q5.08 0 8.04 1.04 q2.8 1 4 3.04 q1.08 1.8 1.08 4.8 z M855.8799999999999 40 l-20.92 0 l0 -29.84 l4.36 0 l0 25.48 l16.56 0 l0 4.36 z M883.2799999999999 14.559999999999999 l-10.52 0 l0 25.44 l-4.24 0 l0 -25.44 l-10.64 0 l0 -4.4 l25.4 0 l0 4.4 z M894.8399999999998 14.559999999999999 l0 21.08 l6.76 0 q2.8 0 5.04 -1.44 q2.12 -1.4 3.32 -3.76 t1.2 -5.16 q0 -2.92 -1.14 -5.36 t-3.26 -3.88 q-2.28 -1.48 -5.24 -1.48 l-6.68 0 z M888.1999999999998 14.559999999999999 l-1.92 -4.4 l15.2 0 q3.96 0 7.24 2.04 q3.16 1.96 5 5.36 t1.84 7.4 q0 3 -1.18 5.94 t-3.26 5.14 q-2 2.16 -4.28 3.08 q-2.2 0.88 -5.24 0.88 l-11.04 0 l0 -25.44 l-2.36 0 z M919.9599999999998 37.52 q0 -1 0.68 -1.7 t1.68 -0.7 t1.7 0.7 t0.7 1.7 t-0.7 1.68 t-1.7 0.68 t-1.68 -0.68 t-0.68 -1.68 z"
           id="path33"
           style="fill:#163967;fill-opacity:1" />
      </g>
    </g>
  </g>
</svg>
